<svg version="1.1" id="Слой_1" xmlns="http://www.w3.org/2000/svg" x="0" y="0" viewBox="0 0 511 511" xml:space="preserve"><style>.st0{fill:#ffac62}</style><path class="st0" d="M145.8 34.3c-.5.1-.9.2-1.4.4-.9.4-1.7.9-2.4 1.6-1.4 1.4-2.2 3.3-2.2 5.3 0 .9.2 2 .6 2.9.6 1.4 1.5 2.5 2.7 3.4.7.5 1.8.9 2.7 1.1.5.1 1 .1 1.5.1 1 0 1.9-.2 2.9-.6.9-.4 1.7-1 2.4-1.6 1-1 1.8-2.4 2-3.8.5-2.5-.2-4.9-2-6.7-1.8-1.9-4.4-2.6-6.8-2.1zm27.4-.2c-2 0-3.9.8-5.3 2.2-1.4 1.4-2.2 3.3-2.2 5.3 0 .5.1 1 .1 1.5.3 1.4 1 2.8 2 3.8.7.7 1.6 1.3 2.4 1.6.4.2.9.3 1.4.4 1.4.3 3 .1 4.3-.4.9-.4 1.7-.9 2.4-1.6.7-.7 1.3-1.5 1.6-2.4.4-.9.6-1.9.6-2.9 0-2-.8-3.9-2.2-5.3-1.2-1.4-3.1-2.2-5.1-2.2zm26 0c-2 0-3.9.8-5.3 2.2-1.4 1.4-2.2 3.3-2.2 5.3 0 2.5 1.2 4.8 3.3 6.2.4.3.8.5 1.3.7.4.2.9.3 1.4.4.5.1 1 .1 1.5.1 1 0 1.9-.2 2.8-.6 1-.4 1.7-.9 2.4-1.6 1.4-1.4 2.2-3.3 2.2-5.3s-.8-3.9-2.2-5.3c-1.3-1.3-3.3-2.1-5.2-2.1z"/><path class="st0" d="M502.8 425.9h-21.5V157.3c0-16.5-13.4-29.9-29.9-29.9H404V32.2C404 13.9 389.1-1 370.8-1H140.5c-18.3 0-33.2 14.9-33.2 33.2v95.2H59.9c-16.5 0-29.9 13.4-29.9 29.9v268.6H8.5c-4.1 0-7.5 3.3-7.5 7.5v44.8C1 495.7 15.3 510 32.9 510h59.8c4.1 0 7.5-3.3 7.5-7.5s-3.3-7.5-7.5-7.5H32.9c-9.3 0-17-7.6-17-17v-37.3h151.8l9.7 22.3c2 4.5 6.5 7.5 11.4 7.5h133.6c5 0 9.4-2.9 11.4-7.5l9.7-22.3h151.8V478c0 9.3-7.6 17-17 17H138.7c-4.1 0-7.5 3.3-7.5 7.5s3.3 7.5 7.5 7.5h339.7c17.6 0 31.9-14.3 31.9-31.9v-44.8c0-4.1-3.3-7.4-7.5-7.4zM122.3 32.2c0-10.1 8.2-18.2 18.2-18.2h230.3c10.1 0 18.2 8.2 18.2 18.2v36.9H122.3V32.2zm-53 146.3v247.4H44.9V157.3c0-8.2 6.7-14.9 14.9-14.9h47.5v20.4H85c-8.7 0-15.7 7-15.7 15.7zm251.5 277.1H190.5l-6.5-14.8h143.3l-6.5 14.8zm106.3-29.7H84.2V178.5c0-.4.4-.8.8-.8h22.3v122.8c0 18.3 14.9 33.2 33.2 33.2h230.3c18.3 0 33.2-14.9 33.2-33.2v-19.8c0-4.1-3.3-7.5-7.5-7.5-4.1 0-7.5 3.3-7.5 7.5v19.8c0 10.1-8.2 18.2-18.2 18.2H140.5c-10.1 0-18.2-8.2-18.2-18.2V84H389v149.7c0 4.1 3.3 7.5 7.5 7.5s7.5-3.3 7.5-7.5v-56h22.3c.4 0 .8.4.8.8v247.4zm39.3 0H442V178.5c0-8.7-7-15.7-15.7-15.7H404v-20.4h47.5c8.2 0 14.9 6.7 14.9 14.9v268.6z"/><path class="st0" d="M116.2 366.2H218c4.1 0 7.5-3.3 7.5-7.5s-3.3-7.5-7.5-7.5H116.2c-4.1 0-7.5 3.3-7.5 7.5s3.4 7.5 7.5 7.5zm129.3 0h42.3c4.1 0 7.5-3.3 7.5-7.5s-3.3-7.5-7.5-7.5h-42.3c-4.1 0-7.5 3.3-7.5 7.5s3.4 7.5 7.5 7.5zm149.6-14.9h-79.6c-4.1 0-7.5 3.3-7.5 7.5s3.3 7.5 7.5 7.5h79.6c4.1 0 7.5-3.3 7.5-7.5s-3.3-7.5-7.5-7.5zm-227.8 30.8h-51.1c-4.1 0-7.5 3.3-7.5 7.5s3.3 7.5 7.5 7.5h51.1c4.1 0 7.5-3.3 7.5-7.5s-3.4-7.5-7.5-7.5zm148.3 0H203.1c-4.1 0-7.5 3.3-7.5 7.5s3.3 7.5 7.5 7.5h112.5c4.1 0 7.5-3.3 7.5-7.5s-3.4-7.5-7.5-7.5zm79.5 0h-56.4c-4.1 0-7.5 3.3-7.5 7.5s3.3 7.5 7.5 7.5h56.4c4.1 0 7.5-3.3 7.5-7.5s-3.3-7.5-7.5-7.5zM193.1 168c0 17.8 13.3 24.7 22.3 25h.2c4 0 7.3-3.2 7.5-7.2.1-4.1-3.1-7.6-7.2-7.7 0 0-2.1-.2-4-1.3-1.7-1-3.9-3-3.9-8.7v-10.5c0-2.5-1.2-4.8-3.3-6.2l-4.7-3.1 4.7-3.1c2.1-1.4 3.3-3.7 3.3-6.2v-10.5c0-3.6 1.3-7.1 4.5-8.9 1.2-.7 2.5-1 3.8-1.1 3.8-.4 6.7-3.5 6.7-7.3v-.4c0-4-3.3-7.3-7.3-7.3h-.4c-9 .3-22.3 7.2-22.3 25v6.6l-7.1 4.8c-3.5 2.3-5.3 6.6-4.3 10.9.6 2.6 2.3 4.9 4.5 6.3l6.9 4.7.1 6.2zM295 118.3c1.3.1 2.6.5 3.8 1.1 3.2 1.8 4.5 5.3 4.5 8.9v10.5c0 2.5 1.2 4.8 3.3 6.2l4.7 3.1-4.7 3.1c-2.1 1.4-3.3 3.7-3.3 6.2V168c0 5.7-2.2 7.7-3.9 8.7-1.9 1.1-3.9 1.3-4 1.3-4.1.1-7.4 3.6-7.2 7.7.1 4 3.4 7.2 7.5 7.2h.2c9-.3 22.3-7.2 22.3-25v-6.6l6.9-4.7c2.2-1.5 3.9-3.7 4.5-6.3 1-4.3-.8-8.5-4.3-10.9l-7.1-4.8V128c0-17.8-13.3-24.7-22.3-24.9h-.4c-4 0-7.3 3.3-7.3 7.3v.4c0 4 3 7.1 6.8 7.5zm-126.8 88.4h-20.9c-4.1 0-7.5 3.3-7.5 7.5 0 4.1 3.3 7.5 7.5 7.5h20.9c4.1 0 7.5-3.3 7.5-7.5-.1-4.2-3.4-7.5-7.5-7.5zm195.9 0H199.7c-4.1 0-7.5 3.3-7.5 7.5 0 4.1 3.3 7.5 7.5 7.5H364c4.1 0 7.5-3.3 7.5-7.5.1-4.2-3.3-7.5-7.4-7.5zm-195.9 34.1h-20.9c-4.1 0-7.5 3.3-7.5 7.5 0 4.1 3.3 7.5 7.5 7.5h20.9c4.1 0 7.5-3.3 7.5-7.5-.1-4.1-3.4-7.5-7.5-7.5zm195.9 0H199.7c-4.1 0-7.5 3.3-7.5 7.5 0 4.1 3.3 7.5 7.5 7.5H364c4.1 0 7.5-3.3 7.5-7.5.1-4.1-3.3-7.5-7.4-7.5zM168.2 275h-20.9c-4.1 0-7.5 3.3-7.5 7.5 0 4.1 3.3 7.5 7.5 7.5h20.9c4.1 0 7.5-3.3 7.5-7.5-.1-4.1-3.4-7.5-7.5-7.5zm195.9 0H199.7c-4.1 0-7.5 3.3-7.5 7.5 0 4.1 3.3 7.5 7.5 7.5H364c4.1 0 7.5-3.3 7.5-7.5.1-4.1-3.3-7.5-7.4-7.5z"/><path class="st0" d="M222.8 166.5c.6 1.4 1.5 2.5 2.7 3.4.8.5 1.8.9 2.7 1.1.5.1 1 .1 1.5.1 1 0 1.9-.2 2.9-.6.9-.4 1.7-1 2.4-1.6 1-1 1.8-2.4 2-3.8.5-2.5-.2-4.9-2-6.7-1.7-1.7-4.3-2.5-6.7-2-.5.1-.9.2-1.4.4-.9.4-1.7.9-2.4 1.6-1.4 1.4-2.2 3.3-2.2 5.3-.1.9.1 2 .5 2.8zm27.6 2.5c.7.7 1.6 1.3 2.4 1.6.4.2.9.3 1.4.4 1.4.3 3 .1 4.3-.4.9-.4 1.7-.9 2.4-1.6.7-.7 1.3-1.5 1.6-2.4.4-.9.6-1.9.6-2.9 0-2-.8-3.9-2.2-5.3-1.4-1.4-3.3-2.2-5.3-2.2s-3.9.8-5.3 2.2c-1.4 1.4-2.2 3.3-2.2 5.3 0 .5.1 1 .1 1.5.4 1.4 1.1 2.7 2.2 3.8zm27.1.9c.4.3.8.5 1.3.7.4.2.9.3 1.4.4.5.1 1 .1 1.5.1 1 0 1.9-.2 2.8-.6 1-.4 1.7-.9 2.4-1.6 1.4-1.4 2.2-3.3 2.2-5.3s-.8-3.9-2.2-5.3c-1.4-1.4-3.3-2.2-5.3-2.2s-3.9.8-5.3 2.2-2.2 3.3-2.2 5.3c.1 2.6 1.3 4.9 3.4 6.3z"/></svg>