<svg version="1.1" id="Слой_1" xmlns="http://www.w3.org/2000/svg" x="0" y="0" viewBox="0 0 512 512" xml:space="preserve"><style>.st0{fill:#ffac62}</style><path class="st0" d="M504.5 38.3c-2.3 0-4.6-1-6-3l-11.4-15.4-12 15.5c-2.5 3.3-7.2 3.9-10.5 1.3-3.3-2.5-3.9-7.2-1.3-10.5l18-23.3c1.4-1.8 3.6-2.9 5.9-2.9h.1c2.3 0 4.6 1.1 5.9 3l17.3 23.3c2.5 3.3 1.8 8-1.6 10.5a7.1 7.1 0 01-4.4 1.5zm-441 269.3c-10.2 0-18.5 8.3-18.5 18.5v56.4c0 10.2 8.3 18.5 18.5 18.5H127c10.2 0 18.5-8.3 18.5-18.5v-56.4c0-10.2-8.3-18.5-18.5-18.5H63.5zm66.9 18.5v56.4c0 1.9-1.6 3.5-3.5 3.5H63.5c-1.9 0-3.5-1.6-3.5-3.5v-56.4c0-1.9 1.6-3.5 3.5-3.5H127c1.8 0 3.4 1.6 3.4 3.5zm62.9-18.5c-10.2 0-18.5 8.3-18.5 18.5v56.4c0 10.2 8.3 18.5 18.5 18.5h63.5c10.2 0 18.5-8.3 18.5-18.5v-56.4c0-10.2-8.3-18.5-18.5-18.5h-63.5zm66.9 18.5v56.4c0 1.9-1.6 3.5-3.5 3.5h-63.5c-1.9 0-3.5-1.6-3.5-3.5v-56.4c0-1.9 1.6-3.5 3.5-3.5h63.5c1.9 0 3.5 1.6 3.5 3.5zm126.3-18.5H323c-10.2 0-18.5 8.3-18.5 18.5v56.4c0 10.2 8.3 18.5 18.5 18.5h63.5c10.2 0 18.5-8.3 18.5-18.5v-56.4c0-10.2-8.3-18.5-18.5-18.5zm3.5 74.9c0 1.9-1.6 3.5-3.5 3.5H323c-1.9 0-3.5-1.6-3.5-3.5v-56.4c0-1.9 1.6-3.5 3.5-3.5h63.5c1.9 0 3.5 1.5 3.5 3.5v56.4zm10-204.8c4.1 0 7.5-3.4 7.5-7.5v-30.7c0-11.4-9.3-20.7-20.7-20.7H63.2c-11.4 0-20.7 9.3-20.7 20.7v111.8c0 11.4 9.3 20.7 20.7 20.7h323.5c11.4 0 20.7-9.3 20.7-20.7V217c0-4.1-3.4-7.5-7.5-7.5s-7.5 3.4-7.5 7.5v34.3c0 3.1-2.6 5.7-5.7 5.7h-27.3l-63.6-71.6c-2.4-2.7-5.7-4.2-9.3-4.3-3.5-.1-7 1.3-9.5 3.8l-32.5 32.5-44.5-50.2c-2.4-2.7-5.7-4.2-9.3-4.3-3.5-.1-7 1.3-9.5 3.8L90.7 257H63.2c-3.1 0-5.7-2.6-5.7-5.7V139.6c0-3.1 2.6-5.7 5.7-5.7h323.5c3.1 0 5.7 2.6 5.7 5.7v30.7c.1 4.1 3.4 7.4 7.6 7.4zm-209.7 1l60.8 68.5c2.8 3.1 7.5 3.4 10.6.6s3.4-7.5.6-10.6l-7.7-8.7 31.6-31.5 53.3 60H111.9l78.4-78.3zm121.4 300.6h-27c-4.1 0-7.5 3.4-7.5 7.5s3.4 7.5 7.5 7.5h27c4.1 0 7.5-3.4 7.5-7.5s-3.3-7.5-7.5-7.5zm108.1 0h-27c-4.1 0-7.5 3.4-7.5 7.5s3.4 7.5 7.5 7.5h27c4.1 0 7.5-3.4 7.5-7.5s-3.4-7.5-7.5-7.5zm-162.1 0h-27c-4.1 0-7.5 3.4-7.5 7.5s3.4 7.5 7.5 7.5h27c4.1 0 7.5-3.4 7.5-7.5s-3.3-7.5-7.5-7.5zm108 0h-27c-4.1 0-7.5 3.4-7.5 7.5s3.4 7.5 7.5 7.5h27c4.1 0 7.5-3.4 7.5-7.5s-3.3-7.5-7.5-7.5zm-216 0h-27c-4.1 0-7.5 3.4-7.5 7.5s3.4 7.5 7.5 7.5h27c4.1 0 7.5-3.4 7.5-7.5s-3.4-7.5-7.5-7.5zm-108 0H29.2l6.1-4.5c3.3-2.5 4-7.2 1.6-10.5-2.5-3.3-7.2-4-10.5-1.6L3 480.1c-1.9 1.4-3 3.6-3 5.9s1.1 4.6 2.9 6l23.3 18c1.4 1.1 3 1.6 4.6 1.6 2.2 0 4.5-1 5.9-2.9 2.5-3.3 1.9-8-1.3-10.5l-5-3.9h11.3c4.1 0 7.5-3.4 7.5-7.5s-3.4-7.5-7.5-7.5zm54 0h-27c-4.1 0-7.5 3.4-7.5 7.5s3.4 7.5 7.5 7.5h27c4.1 0 7.5-3.4 7.5-7.5s-3.4-7.5-7.5-7.5zm374.8-1.2c-1.9.8-3.9 1.3-6 1.3h-17.7c-4.1 0-7.5 3.4-7.5 7.5s3.4 7.5 7.5 7.5h17.7c4.2 0 8.2-.9 12-2.5 3.8-1.7 5.5-6.1 3.8-9.9-1.6-3.9-6-5.6-9.8-3.9zm-266.8 1.2h-27c-4.1 0-7.5 3.4-7.5 7.5s3.4 7.5 7.5 7.5h27c4.1 0 7.5-3.4 7.5-7.5s-3.3-7.5-7.5-7.5zm283.1-158.5c-4.1 0-7.5 3.4-7.5 7.5v27c0 4.1 3.4 7.5 7.5 7.5s7.5-3.4 7.5-7.5v-27c0-4.1-3.3-7.5-7.5-7.5zm0 108c-4.1 0-7.5 3.4-7.5 7.5v27c0 4.1 3.4 7.5 7.5 7.5s7.5-3.4 7.5-7.5v-27c0-4.1-3.3-7.5-7.5-7.5zm0-324c-4.1 0-7.5 3.4-7.5 7.5v27c0 4.1 3.4 7.5 7.5 7.5s7.5-3.4 7.5-7.5v-27c0-4.2-3.3-7.5-7.5-7.5zm0-54c-4.1 0-7.5 3.4-7.5 7.5v27c0 4.1 3.4 7.5 7.5 7.5s7.5-3.4 7.5-7.5v-27c0-4.2-3.3-7.5-7.5-7.5z"/><path class="st0" d="M486.8 0c-4.1 0-7.5 3.4-7.5 7.5v23.7c0 4.1 3.4 7.5 7.5 7.5s7.5-3.4 7.5-7.5V7.5c0-4.1-3.3-7.5-7.5-7.5zm0 158.8c-4.1 0-7.5 3.4-7.5 7.5v27c0 4.1 3.4 7.5 7.5 7.5s7.5-3.4 7.5-7.5v-27c0-4.2-3.3-7.5-7.5-7.5zm0 216c-4.1 0-7.5 3.4-7.5 7.5v27c0 4.1 3.4 7.5 7.5 7.5s7.5-3.4 7.5-7.5v-27c0-4.1-3.3-7.5-7.5-7.5zm0-108c-4.1 0-7.5 3.4-7.5 7.5v27c0 4.1 3.4 7.5 7.5 7.5s7.5-3.4 7.5-7.5v-27c0-4.1-3.3-7.5-7.5-7.5zm0-54c-4.1 0-7.5 3.4-7.5 7.5v27c0 4.1 3.4 7.5 7.5 7.5s7.5-3.4 7.5-7.5v-27c0-4.2-3.3-7.5-7.5-7.5zM29.8 450h390.3c16.4 0 29.8-13.4 29.8-29.8V29.8C450 13.4 436.6 0 420.2 0H29.8C13.4 0 0 13.4 0 29.8v129.5c0 4.1 3.4 7.5 7.5 7.5s7.5-3.4 7.5-7.5V91.2h420v329c0 8.2-6.7 14.8-14.8 14.8H29.8c-8.2 0-14.8-6.7-14.8-14.8V205.3c0-4.1-3.4-7.5-7.5-7.5S0 201.2 0 205.3v214.8C0 436.6 13.4 450 29.8 450zM15 76.2V29.8C15 21.7 21.7 15 29.8 15h390.3c8.2 0 14.8 6.7 14.8 14.8v46.3L15 76.2z"/><path class="st0" d="M64.5 23.6c-12.1 0-22 9.9-22 22s9.9 22 22 22 22-9.9 22-22c.1-12.1-9.8-22-22-22zm0 29c-3.9 0-7-3.1-7-7s3.1-7 7-7 7 3.1 7 7-3.1 7-7 7zm56.1-29c-12.1 0-22 9.9-22 22s9.9 22 22 22 22-9.9 22-22-9.9-22-22-22zm0 29c-3.9 0-7-3.1-7-7s3.1-7 7-7 7 3.1 7 7-3.2 7-7 7zm56-29c-12.1 0-22 9.9-22 22s9.9 22 22 22 22-9.9 22-22-9.8-22-22-22zm0 29c-3.9 0-7-3.1-7-7s3.1-7 7-7 7 3.1 7 7-3.1 7-7 7z"/></svg>