<svg version="1.1" id="Слой_1" xmlns="http://www.w3.org/2000/svg" x="0" y="0" viewBox="0 0 480 480" xml:space="preserve"><style>.st0{fill:#ffac62}</style><path class="st0" d="M440 0H40C17.9 0 0 17.9 0 40v400c0 22.1 17.9 40 40 40h400c22.1 0 40-17.9 40-40V40c0-22.1-17.9-40-40-40zM40 16h400c13.3 0 24 10.7 24 24v24H16V40c0-13.3 10.7-24 24-24zm400 448H40c-13.3 0-24-10.7-24-24V80h448v360c0 13.3-10.7 24-24 24z"/><path class="st0" d="M48 32h16v16H48V32zm32 0h16v16H80V32zm32 0h16v16h-16V32zm56 0h240v16H168V32zm224 96c-22.1 0-40 17.9-40 40v208c0 2.1.9 4.1 2.4 5.6l24 24c1.5 1.5 3.5 2.4 5.6 2.4v16c0 4.4 3.6 8 8 8s8-3.6 8-8v-16c2.1 0 4.2-.8 5.7-2.3l24-24c1.5-1.5 2.3-3.5 2.3-5.7V168c0-22.1-17.9-40-40-40zm-8 104v116l-16 12V216h48v144l-16-12V232h-16zm32-32h-48v-8h48v8zm-24-56c13.3 0 24 10.7 24 24v8h-48v-8c0-13.3 10.7-24 24-24zm4.7 248h-9.4l-15.1-15.1L392 362l19.8 14.9-15.1 15.1zM328 248h-28.8c-2.2-7.3-5.1-14.4-8.8-21.2l20.3-20.3c3.1-3.1 3.1-8.2 0-11.3l-34-33.9c-3.1-3.1-8.2-3.1-11.3 0l-20.3 20.3c-6.7-3.7-13.8-6.6-21.2-8.8V144c0-4.4-3.6-8-8-8h-48c-4.4 0-8 3.6-8 8v28.8c-7.3 2.2-14.5 5.1-21.2 8.8l-20.3-20.3c-3.1-3.1-8.2-3.1-11.3 0l-34 33.9c-3.1 3.1-3.1 8.2 0 11.3l20.3 20.3c-3.7 6.7-6.6 13.8-8.8 21.2H56c-4.4 0-8 3.6-8 8v48c0 4.4 3.6 8 8 8h28.8c2.2 7.3 5.1 14.4 8.8 21.2l-20.4 20.3c-3.1 3.1-3.1 8.2 0 11.3l34 33.9c3.1 3.1 8.2 3.1 11.3 0l20.3-20.3c6.7 3.7 13.8 6.6 21.2 8.8V416c0 4.4 3.6 8 8 8h48c4.4 0 8-3.6 8-8v-28.8c7.3-2.2 14.5-5.1 21.2-8.8l20.3 20.3c3.1 3.1 8.2 3.1 11.3 0l34-33.9c3.1-3.1 3.1-8.2 0-11.3l-20.3-20.3c3.7-6.7 6.6-13.8 8.8-21.2H328c4.4 0 8-3.6 8-8v-48c0-4.4-3.6-8-8-8zm-8 48h-26.9c-3.7 0-6.9 2.6-7.8 6.2-2.4 9.9-6.3 19.4-11.7 28.1-1.9 3.2-1.5 7.2 1.2 9.9l19 19-22.6 22.6-19-19c-2.6-2.6-6.7-3.1-9.9-1.2-8.7 5.4-18.2 9.3-28.1 11.7-3.6.9-6.2 4.1-6.2 7.8V408h-32v-26.9c0-3.7-2.6-6.9-6.2-7.8-9.9-2.4-19.4-6.3-28.1-11.7-3.2-1.9-7.2-1.5-9.9 1.2l-19 19-22.6-22.6 19-19c2.6-2.6 3.1-6.7 1.2-9.9-5.4-8.7-9.3-18.2-11.7-28.1-.9-3.6-4.1-6.2-7.8-6.2H64v-32h26.9c3.7 0 6.9-2.6 7.8-6.2 2.4-9.9 6.3-19.4 11.7-28.1 1.9-3.2 1.5-7.2-1.2-9.9l-19-19 22.6-22.6 19 19c2.6 2.6 6.7 3.1 9.9 1.2 8.7-5.4 18.2-9.3 28.1-11.7 3.6-.9 6.2-4.1 6.2-7.8V152h32v26.9c0 3.7 2.6 6.9 6.2 7.8 9.9 2.4 19.4 6.3 28.1 11.7 3.2 1.9 7.2 1.5 9.9-1.2l19-19 22.6 22.6-19 19c-2.6 2.6-3.1 6.7-1.2 9.9 5.4 8.7 9.3 18.2 11.7 28.1.9 3.6 4.1 6.2 7.8 6.2H320v32z"/><path class="st0" d="M192 216c-35.3 0-64 28.7-64 64s28.7 64 64 64 64-28.7 64-64-28.7-64-64-64zm0 112c-26.5 0-48-21.5-48-48s21.5-48 48-48 48 21.5 48 48-21.5 48-48 48z"/></svg>