<?xml version="1.0" standalone="no"?>
<!DOCTYPE svg PUBLIC "-//W3C//DTD SVG 20010904//EN"
 "http://www.w3.org/TR/2001/REC-SVG-20010904/DTD/svg10.dtd">
<svg version="1.0" xmlns="http://www.w3.org/2000/svg"
 width="260.000000pt" height="260.000000pt" viewBox="0 0 260.000000 260.000000"
 preserveAspectRatio="xMidYMid meet">
<metadata>
Created by potrace 1.11, written by Peter Selinger 2001-2013
</metadata>
<g transform="translate(0.000000,260.000000) scale(0.100000,-0.100000)"
fill="#000000" stroke="none">
<path d="M34 2408 c3 -35 8 -94 11 -133 3 -38 8 -88 10 -110 3 -22 7 -74 10
-115 3 -41 7 -93 10 -116 2 -22 7 -81 10 -130 3 -49 8 -105 10 -124 2 -19 7
-71 11 -115 3 -44 7 -93 9 -110 2 -16 6 -77 10 -135 11 -144 14 -152 61 -168
95 -33 450 -134 468 -135 12 0 33 3 47 7 25 7 26 6 28 -48 1 -30 4 -63 5 -73
5 -22 16 -154 21 -238 2 -33 6 -76 9 -95 2 -19 7 -71 11 -115 3 -44 7 -97 9
-119 4 -40 14 -52 56 -62 14 -3 70 -19 125 -36 55 -16 105 -31 110 -32 6 -1
37 -10 70 -20 33 -10 67 -20 75 -21 8 -2 30 -8 48 -14 24 -7 43 -6 73 4 21 8
40 14 42 14 1 -1 22 5 47 12 25 7 50 13 55 15 47 11 317 92 321 97 7 7 9 19
19 137 3 47 8 108 11 135 16 173 20 217 30 355 3 47 8 87 11 90 2 2 28 5 56 6
45 1 500 123 514 138 5 5 7 21 18 137 3 37 7 84 9 105 3 22 7 75 11 119 4 44
8 98 11 120 2 22 6 65 9 95 4 51 7 82 20 243 3 34 7 82 10 107 3 25 7 72 10
105 2 33 7 92 11 130 3 39 6 88 7 110 l2 40 -628 1 -628 2 6 -67 c7 -85 11
-136 20 -241 10 -109 11 -128 20 -230 3 -47 8 -96 10 -110 2 -14 6 -65 10
-115 4 -49 9 -93 11 -96 1 -3 -36 -5 -84 -5 l-87 1 1 30 c0 17 4 66 9 110 4
44 9 103 10 130 2 28 6 73 9 100 3 28 8 88 11 135 3 47 8 96 10 110 2 14 7 69
10 123 3 54 6 104 8 110 1 9 -146 13 -626 15 l-629 3 6 -63z"/>
</g>
</svg>
