<svg version="1.0" xmlns="http://www.w3.org/2000/svg" width="346.667" height="346.667" viewBox="0 0 260 260"><path d="M3.4 19.2c.3 3.5.8 9.4 1.1 13.3.3 3.8.8 8.8 1 11 .3 2.2.7 7.4 1 11.5.3 4.1.7 9.3 1 11.6.2 2.2.7 8.1 1 13 .3 4.9.8 10.5 1 12.4.2 1.9.7 7.1 1.1 11.5.3 4.4.7 9.3.9 11 .2 1.6.6 7.7 1 13.5 1.1 14.4 1.4 15.2 6.1 16.8 9.5 3.3 45 13.4 46.8 13.5 1.2 0 3.3-.3 4.7-.7 2.5-.7 2.6-.6 2.8 4.8.1 3 .4 6.3.5 7.3.5 2.2 1.6 15.4 2.1 23.8.2 3.3.6 7.6.9 9.5.2 1.9.7 7.1 1.1 11.5.3 4.4.7 9.7.9 11.9.4 4 1.4 5.2 5.6 6.2 1.4.3 7 1.9 12.5 3.6 5.5 1.6 10.5 3.1 11 3.2.6.1 3.7 1 7 2s6.7 2 7.5 2.1c.8.2 3 .8 4.8 1.4 2.4.7 4.3.6 7.3-.4 2.1-.8 4-1.4 4.2-1.4.1.1 2.2-.5 4.7-1.2s5-1.3 5.5-1.5c4.7-1.1 31.7-9.2 32.1-9.7.7-.7.9-1.9 1.9-13.7.3-4.7.8-10.8 1.1-13.5 1.6-17.3 2-21.7 3-35.5.3-4.7.8-8.7 1.1-9 .2-.2 2.8-.5 5.6-.6 4.5-.1 50-12.3 51.4-13.8.5-.5.7-2.1 1.8-13.7.3-3.7.7-8.4.9-10.5.3-2.2.7-7.5 1.1-11.9.4-4.4.8-9.8 1.1-12 .2-2.2.6-6.5.9-9.5.4-5.1.7-8.2 2-24.3.3-3.4.7-8.2 1-10.7.3-2.5.7-7.2 1-10.5.2-3.3.7-9.2 1.1-13 .3-3.9.6-8.8.7-11l.2-4-62.8-.1-62.8-.2.6 6.7c.7 8.5 1.1 13.6 2 24.1 1 10.9 1.1 12.8 2 23 .3 4.7.8 9.6 1 11 .2 1.4.6 6.5 1 11.5.4 4.9.9 9.3 1.1 9.6.1.3-3.6.5-8.4.5l-8.7-.1.1-3c0-1.7.4-6.6.9-11 .4-4.4.9-10.3 1-13 .2-2.8.6-7.3.9-10 .3-2.8.8-8.8 1.1-13.5.3-4.7.8-9.6 1-11 .2-1.4.7-6.9 1-12.3.3-5.4.6-10.4.8-11 .1-.9-14.6-1.3-62.6-1.5l-62.9-.3.6 6.3z"/></svg>