<svg version="1.1" id="Layer_3" xmlns="http://www.w3.org/2000/svg" x="0" y="0" viewBox="0 0 512 512" style="enable-background:new 0 0 512 512" xml:space="preserve"><style>.st0{fill:#ffac62}</style><path class="st0" d="M448 88h-24V16c0-4.4-3.6-8-8-8H96c-4.4 0-8 3.6-8 8v72H64c-13.2 0-24 10.8-24 24v240c0 13.2 10.8 24 24 24h152v64h-40c-22.1 0-40 17.9-40 40v16c0 4.4 3.6 8 8 8h224c4.4 0 8-3.6 8-8v-16c0-22.1-17.9-40-40-40h-40v-64h152c13.2 0 24-10.8 24-24V112c0-13.2-10.8-24-24-24zm-344 0h304v176H104V88zm304-64v48H104V24h304zM64 104h24v168c0 4.4 3.6 8 8 8h320c4.4 0 8-3.6 8-8V104h24c4.4 0 8 3.6 8 8v184H56V112c0-4.4 3.6-8 8-8zm296 376v8H152v-8c0-13.2 10.8-24 24-24h160c13.2 0 24 10.8 24 24zm-80-40h-48v-64h48v64zm168-80H64c-4.4 0-8-3.6-8-8v-40h400v40c0 4.4-3.6 8-8 8z"/><path class="st0" d="M160 104h-32c-4.4 0-8 3.6-8 8v48c0 4.4 3.6 8 8 8h32c4.4 0 8-3.6 8-8v-48c0-4.4-3.6-8-8-8zm-8 48h-16v-32h16v32zm32-48h16v64h-16zm72 0h-32c-4.4 0-8 3.6-8 8v48c0 4.4 3.6 8 8 8h32c4.4 0 8-3.6 8-8v-48c0-4.4-3.6-8-8-8zm-8 48h-16v-32h16v32zm32-48h16v64h-16zm-120 80h-32c-4.4 0-8 3.6-8 8v48c0 4.4 3.6 8 8 8h32c4.4 0 8-3.6 8-8v-48c0-4.4-3.6-8-8-8zm-8 48h-16v-32h16v32zm32-48h16v64h-16zm72 0h-32c-4.4 0-8 3.6-8 8v48c0 4.4 3.6 8 8 8h32c4.4 0 8-3.6 8-8v-48c0-4.4-3.6-8-8-8zm-8 48h-16v-32h16v32zm32-48h16v64h-16zm72-80h-32c-4.4 0-8 3.6-8 8v48c0 4.4 3.6 8 8 8h32c4.4 0 8-3.6 8-8v-48c0-4.4-3.6-8-8-8zm-8 48h-16v-32h16v32zm32-48h16v64h-16zm-24 80h-32c-4.4 0-8 3.6-8 8v48c0 4.4 3.6 8 8 8h32c4.4 0 8-3.6 8-8v-48c0-4.4-3.6-8-8-8zm-8 48h-16v-32h16v32zm32-48h16v64h-16zM224 328h64v16h-64zm200 0h16v16h-16zm-32 0h16v16h-16zM120 40h16v16h-16zm32 0h16v16h-16zm32 0h16v16h-16z"/></svg>