<svg version="1.1" id="Слой_1" xmlns="http://www.w3.org/2000/svg" x="0" y="0" viewBox="0 0 511 511" style="enable-background:new 0 0 511 511" xml:space="preserve"><style>.st0{fill:#ffac62}</style><path class="st0" d="M58.8 187.2c1.5 1.5 3.4 2.2 5.3 2.2s3.8-.7 5.3-2.2c2.9-2.9 2.9-7.7 0-10.6l-18.2-18.2 18.2-18.2c2.9-2.9 2.9-7.7 0-10.6-2.9-2.9-7.7-2.9-10.6 0L35.4 153c-1.4 1.4-2.2 3.3-2.2 5.3s.8 3.9 2.2 5.3l23.4 23.6zm74.3-28.8-18.2 18.2c-2.9 2.9-2.9 7.7 0 10.6 1.5 1.5 3.4 2.2 5.3 2.2s3.8-.7 5.3-2.2l23.5-23.5c2.9-2.9 2.9-7.7 0-10.6l-23.5-23.5c-2.9-2.9-7.7-2.9-10.6 0-2.9 2.9-2.9 7.7 0 10.6l18.2 18.2zM81 188.9c.9.4 1.8.5 2.7.5 3 0 5.8-1.8 7-4.7l18.4-46.9c1.5-3.8-.4-8.2-4.2-9.7-3.8-1.5-8.2.4-9.7 4.2l-18.4 46.9c-1.5 3.8.4 8.1 4.2 9.7zm-36.1 44.3h50.4c4.1 0 7.5-3.3 7.5-7.5 0-4.1-3.3-7.5-7.5-7.5H44.9c-4.1 0-7.5 3.3-7.5 7.5s3.4 7.5 7.5 7.5zm166.4-14.9h-88.6c-4.1 0-7.5 3.3-7.5 7.5 0 4.1 3.3 7.5 7.5 7.5h88.6c4.1 0 7.5-3.3 7.5-7.5s-3.3-7.5-7.5-7.5zM44.9 264.8h21.5c4.1 0 7.5-3.3 7.5-7.5 0-4.1-3.3-7.5-7.5-7.5H44.9c-4.1 0-7.5 3.3-7.5 7.5 0 4.1 3.4 7.5 7.5 7.5zm139.1-15c-4.1 0-7.5 3.3-7.5 7.5 0 4.1 3.3 7.5 7.5 7.5h13c4.1 0 7.5-3.3 7.5-7.5 0-4.1-3.3-7.5-7.5-7.5h-13zm-19.7 7.5c0-4.1-3.3-7.5-7.5-7.5H92.6c-4.1 0-7.5 3.3-7.5 7.5 0 4.1 3.3 7.5 7.5 7.5h64.2c4.1 0 7.5-3.4 7.5-7.5zm49 0c0 4.1 3.3 7.5 7.5 7.5h24.5c4.1 0 7.5-3.3 7.5-7.5 0-4.1-3.3-7.5-7.5-7.5h-24.5c-4.2 0-7.5 3.4-7.5 7.5zm-40.7-92.9h25.8c4.1 0 7.5-3.3 7.5-7.5 0-4.1-3.3-7.5-7.5-7.5h-25.8c-4.1 0-7.5 3.3-7.5 7.5s3.3 7.5 7.5 7.5zm54.7 0h157.5c4.1 0 7.5-3.3 7.5-7.5 0-4.1-3.3-7.5-7.5-7.5H227.3c-4.1 0-7.5 3.3-7.5 7.5s3.4 7.5 7.5 7.5zm133.6 18h-63.8c-4.1 0-7.5 3.3-7.5 7.5 0 4.1 3.3 7.5 7.5 7.5h63.8c4.1 0 7.5-3.3 7.5-7.5s-3.4-7.5-7.5-7.5zm-87.7 0h-21.9c-4.1 0-7.5 3.3-7.5 7.5 0 4.1 3.3 7.5 7.5 7.5h21.9c4.1 0 7.5-3.3 7.5-7.5-.1-4.2-3.4-7.5-7.5-7.5zm-100.6 14.9h53.7c4.1 0 7.5-3.3 7.5-7.5 0-4.1-3.3-7.5-7.5-7.5h-53.7c-4.1 0-7.5 3.3-7.5 7.5s3.3 7.5 7.5 7.5zm-15.7 83.8h-50.4c-4.1 0-7.5 3.3-7.5 7.5 0 4.1 3.3 7.5 7.5 7.5h50.4c4.1 0 7.5-3.3 7.5-7.5 0-4.1-3.4-7.5-7.5-7.5zm-73.3 0H44.9c-4.1 0-7.5 3.3-7.5 7.5 0 4.1 3.3 7.5 7.5 7.5h38.7c4.1 0 7.5-3.3 7.5-7.5 0-4.1-3.3-7.5-7.5-7.5zm164.6 0h-65.8c-4.1 0-7.5 3.3-7.5 7.5 0 4.1 3.3 7.5 7.5 7.5h65.8c4.1 0 7.5-3.3 7.5-7.5 0-4.1-3.3-7.5-7.5-7.5zm89-38.4h-36c-4.1 0-7.5 3.3-7.5 7.5 0 4.1 3.3 7.5 7.5 7.5h36c4.1 0 7.5-3.3 7.5-7.5s-3.3-7.5-7.5-7.5zm62.5 15h50.8c4.1 0 7.5-3.3 7.5-7.5 0-4.1-3.3-7.5-7.5-7.5h-50.8c-4.1 0-7.5 3.3-7.5 7.5 0 4.1 3.4 7.5 7.5 7.5zm-25.4-15h-11.6c-4.1 0-7.5 3.3-7.5 7.5 0 4.1 3.3 7.5 7.5 7.5h11.6c4.1 0 7.5-3.3 7.5-7.5s-3.4-7.5-7.5-7.5zm-73 96.4h36c4.1 0 7.5-3.3 7.5-7.5 0-4.1-3.3-7.5-7.5-7.5h-36c-4.1 0-7.5 3.3-7.5 7.5s3.3 7.5 7.5 7.5zm98.4 0h50.8c4.1 0 7.5-3.3 7.5-7.5 0-4.1-3.3-7.5-7.5-7.5h-50.8c-4.1 0-7.5 3.3-7.5 7.5s3.4 7.5 7.5 7.5zm-37.1 0h11.6c4.1 0 7.5-3.3 7.5-7.5 0-4.1-3.3-7.5-7.5-7.5h-11.6c-4.1 0-7.5 3.3-7.5 7.5.1 4.2 3.4 7.5 7.5 7.5zm-25.4 66.6h-36c-4.1 0-7.5 3.3-7.5 7.5 0 4.1 3.3 7.5 7.5 7.5h36c4.1 0 7.5-3.3 7.5-7.5s-3.3-7.5-7.5-7.5zm113.3 0h-50.8c-4.1 0-7.5 3.3-7.5 7.5 0 4.1 3.3 7.5 7.5 7.5h50.8c4.1 0 7.5-3.3 7.5-7.5s-3.4-7.5-7.5-7.5zm-76.2 0h-11.6c-4.1 0-7.5 3.3-7.5 7.5 0 4.1 3.3 7.5 7.5 7.5h11.6c4.1 0 7.5-3.3 7.5-7.5s-3.4-7.5-7.5-7.5z"/><path class="st0" d="M478.1 1H32.9C14.8 1 0 15.8 0 33.9v361.9c0 18.1 14.8 32.9 32.9 32.9H61c4.1 0 7.5-3.3 7.5-7.5 0-4.1-3.3-7.5-7.5-7.5H32.9c-9.9 0-18-8.1-18-18v-28.4h272.5v12.9h-5.9c-8.1 0-14.7 6.6-14.7 14.7v18.7H106.5c-4.1 0-7.5 3.3-7.5 7.5 0 4.1 3.3 7.5 7.5 7.5h71.9v26.8h-22.6c-15.1 0-27.3 12.3-27.3 27.3V499c0 6.9 5.6 12.5 12.5 12.5h228.4c6.9 0 12.5-5.6 12.5-12.5v-16.2c0-15.1-12.3-27.3-27.3-27.3H332V446h138.3c8.1 0 14.7-6.6 14.7-14.7v-3.5c14.6-3.4 25.5-16.5 25.5-32.1l.5-361.8C511 15.8 496.2 1 478.1 1zM281.7 349.6v-35.8H470v35.8H281.7zm20.7-50.8v-15.7h147v15.7h-147zm147 65.8v15.7h-147v-15.7h147zm-256 64.1h73.4v2.7c0 8.1 6.6 14.7 14.7 14.7H317v9.5H193.4v-26.9zm161.2 41.8c6.8 0 12.4 5.5 12.4 12.4v13.7H143.5v-13.7c0-6.8 5.5-12.4 12.4-12.4h198.7zM470 431.1H281.7v-35.8H470v35.8zm25.5-35.3c0 7.2-4.3 13.5-10.5 16.3V395c0-8.1-6.6-14.7-14.7-14.7h-5.9v-12.9h31.2v28.4h-.1zm0-43.4h-10.8c.2-.8.2-38.9.2-38.9 0-8.1-6.6-14.7-14.7-14.7h-5.9v-15.7h5.9c8.1 0 14.7-6.6 14.7-14.7V232c0-8.1-6.6-14.7-14.7-14.7H428c-4.1 0-7.5 3.3-7.5 7.5 0 4.1 3.3 7.5 7.5 7.5h42v35.8H281.7v-35.8h99.7c4.1 0 7.5-3.3 7.5-7.5 0-4.1-3.3-7.5-7.5-7.5h-100c-8.1 0-14.7 6.6-14.7 14.7v36.3c0 8.1 6.6 14.7 14.7 14.7h5.9v15.7h-5.9c-8.1 0-14.7 6.6-14.7 14.7 0 0 .1 38.1.2 38.9H15V102.7h480.5v249.7zm0-264.6h-480V33.9c0-9.9 8.1-18 18-18h444.1c9.9 0 18 8.1 18 18v53.9h-.1z"/><path class="st0" d="M55.2 29.7c-12.1 0-21.9 9.8-21.9 21.9s9.8 21.9 21.9 21.9 21.9-9.8 21.9-21.9-9.8-21.9-21.9-21.9zm0 28.9c-3.9 0-7-3.1-7-7s3.1-7 7-7 7 3.1 7 7c-.1 3.9-3.2 7-7 7zM111 29.7c-12.1 0-21.9 9.8-21.9 21.9s9.8 21.9 21.9 21.9 22-9.8 22-21.9-9.9-21.9-22-21.9zm0 28.9c-3.9 0-7-3.1-7-7s3.1-7 7-7 7 3.1 7 7-3.1 7-7 7zm55.9-28.9c-12.1 0-21.9 9.8-21.9 21.9s9.8 21.9 21.9 21.9 21.9-9.8 21.9-21.9-9.8-21.9-21.9-21.9zm0 28.9c-3.9 0-7-3.1-7-7s3.1-7 7-7 7 3.1 7 7-3.1 7-7 7z"/></svg>