<svg xmlns="http://www.w3.org/2000/svg" viewBox="0 0 511 511" style="enable-background:new 0 0 511 511" xml:space="preserve"><path d="M470.962 102.751c-.018-.182-.049-.359-.08-.537-.011-.063-.016-.128-.029-.191a7.465 7.465 0 0 0-.155-.619c-.009-.03-.014-.061-.023-.091a7.439 7.439 0 0 0-.218-.608c-.011-.027-.019-.055-.03-.081a7.142 7.142 0 0 0-.261-.552c-.019-.037-.034-.075-.054-.112a7.01 7.01 0 0 0-.291-.486c-.03-.048-.057-.098-.088-.145-.101-.151-.213-.295-.324-.438-.039-.05-.073-.102-.113-.151a7.717 7.717 0 0 0-.493-.545L372.804 2.198a7.277 7.277 0 0 0-.545-.493c-.049-.04-.101-.074-.151-.113a7.277 7.277 0 0 0-.438-.324c-.047-.032-.097-.058-.145-.088a7.898 7.898 0 0 0-.486-.291c-.036-.02-.075-.035-.112-.054a7.51 7.51 0 0 0-.552-.261l-.081-.03a7.439 7.439 0 0 0-.608-.218c-.03-.009-.061-.015-.091-.023a7.469 7.469 0 0 0-.619-.156c-.063-.013-.128-.018-.191-.029-.178-.031-.355-.062-.537-.08A7.433 7.433 0 0 0 367.5 0h-224C121.72 0 104 17.72 104 39.5V80H71.5C54.131 80 40 94.131 40 111.5v80c0 17.369 14.131 31.5 31.5 31.5H104v248.5c0 21.78 17.72 39.5 39.5 39.5h288c21.78 0 39.5-17.72 39.5-39.5v-368c0-.251-.013-.501-.038-.749zM375 25.606 445.394 96H399.5C385.991 96 375 85.009 375 71.5V25.606zM55 191.5v-80c0-9.098 7.402-16.5 16.5-16.5h232c9.098 0 16.5 7.402 16.5 16.5v80c0 9.098-7.402 16.5-16.5 16.5H111.519l-.019-.001-.019.001H71.5c-9.098 0-16.5-7.402-16.5-16.5zM431.5 496h-288c-13.509 0-24.5-10.991-24.5-24.5V223h184.5c17.369 0 31.5-14.131 31.5-31.5v-80c0-17.369-14.131-31.5-31.5-31.5H119V39.5c0-13.509 10.991-24.5 24.5-24.5H360v56.5c0 21.78 17.72 39.5 39.5 39.5H456v360.5c0 13.509-10.991 24.5-24.5 24.5z"/><path d="M327.5 408c-1.97 0-3.91.8-5.3 2.2a7.528 7.528 0 0 0-2.2 5.3c0 1.97.8 3.91 2.2 5.3 1.39 1.4 3.33 2.2 5.3 2.2 1.97 0 3.91-.8 5.3-2.2 1.4-1.39 2.2-3.33 2.2-5.3 0-1.97-.8-3.91-2.2-5.3a7.528 7.528 0 0 0-5.3-2.2zM95 167h20.5c15.164 0 27.5-12.336 27.5-27.5S130.664 112 115.5 112h-28a7.5 7.5 0 0 0-7.5 7.5v64a7.5 7.5 0 0 0 15 0V167zm33-27.5c0 6.893-5.607 12.5-12.5 12.5H95v-25h20.5c6.893 0 12.5 5.607 12.5 12.5zM247.5 191a7.5 7.5 0 0 0 7.5-7.5V167h20.5c15.164 0 27.5-12.336 27.5-27.5S290.664 112 275.5 112h-28a7.5 7.5 0 0 0-7.5 7.5v64a7.5 7.5 0 0 0 7.5 7.5zm40.5-51.5c0 6.893-5.607 12.5-12.5 12.5H255v-25h20.5c6.893 0 12.5 5.607 12.5 12.5zM159.5 191a7.5 7.5 0 0 0 7.5-7.5V167h41v16.5a7.5 7.5 0 0 0 15 0v-64a7.5 7.5 0 0 0-15 0V152h-41v-32.5a7.5 7.5 0 0 0-15 0v64a7.5 7.5 0 0 0 7.5 7.5zm109.303 107.197a7.5 7.5 0 0 0-10.606 0l-56 56a7.5 7.5 0 0 0 0 10.606l56 56c1.464 1.464 3.384 2.197 5.303 2.197s3.839-.732 5.303-2.197a7.5 7.5 0 0 0 0-10.606L218.106 359.5l50.697-50.697a7.5 7.5 0 0 0 0-10.606zM327.5 296c-26.191 0-47.5 21.309-47.5 47.5a7.5 7.5 0 0 0 15 0c0-17.92 14.58-32.5 32.5-32.5s32.5 14.58 32.5 32.5-14.58 32.5-32.5 32.5a7.5 7.5 0 0 0-7.5 7.5v8a7.5 7.5 0 0 0 15 0v-1.091c22.641-3.606 40-23.269 40-46.909 0-26.191-21.309-47.5-47.5-47.5z"/></svg>