<svg height="512pt" viewBox="0 0 512 512" width="512pt" xmlns="http://www.w3.org/2000/svg"><path d="M462 10H50c-22.09 0-40 17.91-40 40v412c0 22.09 17.91 40 40 40h412c22.09 0 40-17.91 40-40V50c0-22.09-17.91-40-40-40zm0 0" fill="#709193"/><path d="M256 116c88.371 0 160 71.629 160 160 0 72.66-48.43 134.012-114.781 153.52-3.278-3.56-5.188-8.301-5.219-13.52v-39.82c.031-18.309-7.219-23.14-12.512-31.22 83.614-12.48 86.242-89.358 57.043-123.94-.453-.52-.86-1.508-.672-2.07 4.48-13.54 3.903-43.36-6.347-42.891-14.043.652-25.242 8.562-38.274 16.312-.988.578-1.777.809-2.93.5-11.98-3.25-24.09-5.012-36.308-5.16-12.219.148-24.328 1.91-36.309 5.16-1.152.309-1.941.078-2.93-.5-13.03-7.75-24.23-15.66-38.273-16.312-10.25-.47-10.828 29.351-6.347 42.89.187.563-.22 1.551-.672 2.07-29.2 34.583-26.57 111.461 57.043 123.942-5.293 8.078-12.543 12.91-12.512 31.219V416c-.031 5.219-1.941 9.96-5.219 13.52C144.43 410.012 96 348.66 96 276c0-88.371 71.629-160 160-160zm0 0" fill="#f0f0fa"/><path d="M386 53c0 5.523-4.477 10-10 10s-10-4.477-10-10 4.477-10 10-10 10 4.477 10 10zm-130 53c-93.738 0-170 76.262-170 170 0 94.645 76.879 170 170 170 93.324 0 170-75.488 170-170 0-93.738-76.262-170-170-170zm-30.793 316.82c.508-2.207.781-4.492.793-6.82v-39.836c-.023-14.582 5.059-16.844 10.875-25.726a10.013 10.013 0 00.762-9.57 9.992 9.992 0 00-7.649-5.798c-39.668-5.922-55.238-26.37-61.316-42.48-8.094-21.461-3.809-48.223 10.418-65.094 2.164-2.543 4.101-7.113 2.547-11.687-3.035-9.168-2.563-23.813-.672-29.477 8.617 1.262 16.668 6.145 25.84 11.711 5.308 3.227 9.082 6.203 15.504 4.477 11.222-3.043 22.558-4.66 33.691-4.81 11.137.145 22.473 1.767 33.71 4.813 6.384 1.723 10.282-1.32 15.485-4.48 9.176-5.566 17.227-10.453 25.844-11.711 1.89 5.66 2.363 20.3-.644 29.395-1.582 4.652.351 9.226 2.515 11.77 14.23 16.866 18.516 43.632 10.418 65.093-6.074 16.11-21.644 36.558-61.312 42.476a10.005 10.005 0 00-6.891 15.372c5.805 8.863 10.902 11.125 10.879 25.742v39.875c.012 2.304.281 4.574.785 6.765a150.715 150.715 0 01-61.582 0zm80.902-5.402A11.262 11.262 0 01306 416v-39.805c.02-11.476-2.504-18.941-5.629-24.539 30.348-8.203 51.977-26.308 61.668-52.008 10.238-27.144 5.594-59.593-11.45-82.058 3.106-13.668 3.016-35.254-4.425-45.07-3.328-4.395-7.976-6.672-13.117-6.45-15.637.723-27.688 8.528-40.813 16.442-12.011-3.04-24.144-4.653-36.113-4.801a2.504 2.504 0 00-.242 0c-11.973.144-24.113 1.762-36.113 4.8-13.024-7.85-25.11-15.714-40.817-16.44-5.117-.235-9.781 2.054-13.113 6.449-7.43 9.8-7.531 31.335-4.422 45.062-17.043 22.465-21.691 54.922-11.453 82.066 9.691 25.7 31.32 43.805 61.668 52.004-2.469 4.422-4.555 10.016-5.316 17.817-12.368 4.324-22.38 1.472-29.176-9.98-7.95-13.372-21.418-24.157-36.856-22.825-5.504.477-9.578 5.324-9.101 10.824.472 5.504 5.336 9.586 10.824 9.106 7.148-.621 14.2 6.824 17.937 13.11 10.688 18.01 28 24.44 46.059 20.577v25.66a11.44 11.44 0 01-.113 1.473C146.687 396.41 106 339.394 106 276c0-82.71 67.29-150 150-150s150 67.29 150 150c0 63.395-40.687 120.41-99.89 141.418zm0 0"/><path d="M462 0H50C22.43 0 0 22.43 0 50v412c0 27.57 22.43 50 50 50h412c27.57 0 50-22.43 50-50V50c0-27.57-22.43-50-50-50zm30 462c0 16.543-13.457 30-30 30H50c-16.543 0-30-13.457-30-30V50c0-16.543 13.457-30 30-30h412c16.543 0 30 13.457 30 30zm0 0"/><path d="M136 63h200c5.523 0 10-4.477 10-10s-4.477-10-10-10H136c-5.523 0-10 4.477-10 10s4.477 10 10 10zm0 0"/></svg>